<svg xmlns="http://www.w3.org/2000/svg" viewBox="0 0 400 160" fill="currentColor" role="img" aria-label="Tokyo skyline"><style>@media (prefers-reduced-motion: no-preference){.sk-beacon{animation:sk-blink 2.6s ease-in-out infinite}.sk-alt{animation-delay:-1.3s}.sk-twinkle{animation:sk-twinkle 3.2s ease-in-out infinite}.sk-pulse{animation:sk-pulse 4s ease-in-out infinite}.sk-wheel{animation:sk-spin 36s linear infinite}.sk-mill{animation:sk-spin 13s linear infinite}.sk-sway{animation:sk-sway 4.5s ease-in-out infinite alternate}.sk-sway2{animation-duration:5.6s;animation-delay:-2.2s}.sk-pine{animation:sk-sway 7s ease-in-out infinite alternate}.sk-bird{animation:sk-fly linear infinite}.sk-b1{animation-duration:34s}.sk-b2{animation-duration:47s;animation-delay:-21s}.sk-shuttle{animation:sk-shuttle 16s ease-in-out infinite}}.sk-beacon{opacity:.25}.sk-twinkle{opacity:.4}@keyframes sk-blink{0%,100%{opacity:.15}50%{opacity:1}}@keyframes sk-twinkle{0%,100%{opacity:.3}50%{opacity:1}}@keyframes sk-pulse{0%,100%{opacity:.55}50%{opacity:1}}@keyframes sk-spin{to{transform:rotate(360deg)}}@keyframes sk-sway{from{transform:rotate(-1.8deg)}to{transform:rotate(2.2deg)}}@keyframes sk-fly{from{transform:translate(-36px,-2px)}to{transform:translate(436px,-12px)}}@keyframes sk-shuttle{0%,8%{transform:translate(0,0)}44%,56%{transform:translate(var(--dx),var(--dy))}92%,100%{transform:translate(0,0)}}</style><path d="M-8 160 Q30 118 52 84 L58 88 L64 84 L70 88 L74 84 Q96 118 134 160 Z"/><path d="M128 128h32v32h-32Z"/><path d="M164 138h24v22h-24Z"/><path d="M186 160 Q202 120 208 96 L232 96 Q238 120 254 160 L242 160 Q226 128 220 122 Q214 128 198 160 Z"/><path d="M204 90h32v8h-32Z"/><path d="M210 90 L215 56 L225 56 L230 90 Z"/><path d="M212 50h16v6h-16Z"/><path d="M219 50 L219.6 20 L220.6 20 L221.2 50 Z"/><path d="M262 122h30v38h-30Z"/><path d="M334 160 L340 76 L348 76 L354 160 Z"/><path d="M330 66h28v10h-28Z"/><path d="M341 66 L343 36 L345 36 L347 66 Z"/><path d="M337 29h14v7h-14Z"/><path d="M343.4 29 L343.8 6 L344.8 6 L345.2 29 Z"/><circle class="sk-beacon" cx="344.3" cy="5" r="1.6"/><circle class="sk-beacon sk-alt" cx="220.1" cy="18.5" r="1.7"/></svg>